# xmcd CD database file
#
# Track frame offsets:
#	150
#	21904
#	35032
#	72753
#	86009
#	100538
#	114021
#	126827
#	139153
#	152430
#	161308
#	174987
#	189637
#	204062
#	226858
#	239744
#
# Disc length: 3381 seconds
#
# Revision: 0
# Processed by: cddbd v1.5.2PL0 Copyright (c) Steve Scherf et al.
# Submitted via: CDex 1.70beta2
#
DISCID=c20d3310
DTITLE=Various Artist - New Orleans Jazz
DYEAR=2010
DGENRE=Jazz
TTITLE0=Sidney Bechet and his New Orleans Feetwarmers - Buggle Call Ragole Miss
TTITLE1=Bunk Johnson and Company - The Entertainer
TTITLE2=Sidney Bechet - Basin Street Blues
TTITLE3=Pete Johnson - Basement Boogie
TTITLE4=Richard M. Jone's Jazzmen - Canal Street Blues
TTITLE5=George Lewis - Red Wing
TTITLE6=Albert Ammons and his Rythm Kings - Don't Want To See You
TTITLE7=Fletcher Henderson - Jim Town Blues
TTITLE8=Sonny Boy Williamson - Stop Breakin Down
TTITLE9=George Lewis - Buggle Call Rag
TTITLE10=George Lewis - The Old Rugged Cross
TTITLE11=Muggsy Spanier and his Ragtime Band - Relaxin' at The Touro
TTITLE12=George Lewis - It's a Long Way to Tipperary
TTITLE13=George Lewis - Careless Love
TTITLE14=Muggsy Spanier and his Ragtime Band - At The Jazz Band Ball
TTITLE15=Buck Johnson and his New Orleans Band - When The Saints Go Marchin In
EXTD=YEAR: 2010
EXTT0=
EXTT1=
EXTT2=
EXTT3=
EXTT4=
EXTT5=
EXTT6=
EXTT7=
EXTT8=
EXTT9=
EXTT10=
EXTT11=
EXTT12=
EXTT13=
EXTT14=
EXTT15=
PLAYORDER=
